# xmcd CD database file
#
# Track frame offsets:
#	150
#	14935
#	33162
#	49612
#	69812
#	83202
#	103157
#	111062
#	128500
#	150667
#	165515
#	173725
#	189610
#	209547
#	228227
#	243067
#	258110
#	278750
#	296842
#	308900
#
# Disc length: 4318 seconds
#
# Revision: 0
# Processed by: cddbd v1.5.1PL0 Copyright (c) Steve Scherf et al.
# Submitted via: CDex 1.51
#
DISCID=0910dc14
DTITLE=Thirteen Moons - Going Against the Tide
DYEAR=1998
DGENRE=Jazz
TTITLE0=A True Story
TTITLE1=Origins
TTITLE2=Will You Remember, Will You Return
TTITLE3=Mowgli And Baloo
TTITLE4=Birds on Rocky Mountains
TTITLE5=A Moment in Time
TTITLE6=If You Please
TTITLE7=As The Dreams Meet The Soil
TTITLE8=I Give You My Dream
TTITLE9=It's For Real
TTITLE10=Daddy Come Home
TTITLE11=Suddenly One Summer
TTITLE12=Someone, Somewhere Is Your Best Friend
TTITLE13=A Song For The Bells
TTITLE14=Beneath An Evening Sky
TTITLE15=Where Did You All Go
TTITLE16=You Will Find Mercy On Your Road
TTITLE17=Undercurrent
TTITLE18=La Lumière
TTITLE19=Going Against The Tide
EXTD=YEAR: 1998
EXTT0=
EXTT1=
EXTT2=
EXTT3=
EXTT4=
EXTT5=
EXTT6=
EXTT7=
EXTT8=
EXTT9=
EXTT10=
EXTT11=
EXTT12=
EXTT13=
EXTT14=
EXTT15=
EXTT16=
EXTT17=
EXTT18=
EXTT19=
PLAYORDER=
